<?xml version="1.0" encoding="UTF-8"?>
<svg id="Layer_2" data-name="Layer 2" xmlns="http://www.w3.org/2000/svg" viewBox="0 0 564.69 499.99">
  <defs>
    <style>
      .cls-1 {
        fill: #eadded;
      }
    </style>
  </defs>
  <g id="Layer_1-2" data-name="Layer 1">
    <g>
      <path class="cls-1" d="M422.68,499.99h-97.04l-110.48-110.98-34.11-34.11s-39.72-35.64-39.02-105.13c0,0,.26-103.71,114.44-130.41,0,0,115.59-24.24,158.81,95.92,0,0,34.43,100.14-62.54,163.03l-52-51.3s59.73-17.57,51.65-81.16c0,0-6.68-68.86-87.49-58.68,0,0-78,23.19-46.73,101.89,0,0,3.51,9.01,14.76,19.61,11.24,10.6,97.68,99.15,97.68,99.15l92.08,92.17Z"/>
      <path class="cls-1" d="M142.01,373.35l67.9,67.9v58.73h-67.9s.08-126.72,0-126.64Z"/>
      <path class="cls-1" d="M.55,228.68L195.22,34.02s87.13-76.54,170.38,0l199.09,195.63h-72.31s-18.15,2.5-39.4-18.07l-117.72-117.72s-30.96-38.37-82.4-20.49c0,0-17.43,10.23-32.09,24.23l-108.94,108.94s-20.03,19.7-35.99,21.66c0,0-4.29.64-14.86.77-10.57.14-58.9.76-58.9.76H0l.55-1.06Z"/>
    </g>
  </g>
</svg>